<?xml version="1.0" encoding="UTF-8" standalone="no"?>
<!-- Created with Inkscape (http://www.inkscape.org/) -->

<svg
   width="512"
   height="512"
   viewBox="0 0 512 512"
   version="1.1"
   id="svg1"
   inkscape:version="1.3 (0e150ed6c4, 2023-07-21)"
   sodipodi:docname="SkySpindleLogo.svg"
   xmlns:inkscape="http://www.inkscape.org/namespaces/inkscape"
   xmlns:sodipodi="http://sodipodi.sourceforge.net/DTD/sodipodi-0.dtd"
   xmlns:xlink="http://www.w3.org/1999/xlink"
   xmlns="http://www.w3.org/2000/svg"
   xmlns:svg="http://www.w3.org/2000/svg">
  <sodipodi:namedview
     id="namedview1"
     pagecolor="#505050"
     bordercolor="#eeeeee"
     borderopacity="1"
     inkscape:showpageshadow="0"
     inkscape:pageopacity="0"
     inkscape:pagecheckerboard="0"
     inkscape:deskcolor="#505050"
     inkscape:document-units="px"
     inkscape:zoom="2.2677135"
     inkscape:cx="263.48125"
     inkscape:cy="231.29024"
     inkscape:window-width="1920"
     inkscape:window-height="1017"
     inkscape:window-x="1912"
     inkscape:window-y="-8"
     inkscape:window-maximized="1"
     inkscape:current-layer="layer3" />
  <defs
     id="defs1">
    <rect
       x="34.923264"
       y="48.643118"
       width="86.060901"
       height="57.997564"
       id="rect54" />
    <pattern
       inkscape:collect="always"
       xlink:href="#Strips1_1.5"
       preserveAspectRatio="xMidYMid"
       id="pattern2"
       patternTransform="matrix(1.285575,1.5320886,-1.5320886,1.285575,0,0)"
       x="0"
       y="0" />
    <pattern
       inkscape:collect="always"
       patternUnits="userSpaceOnUse"
       width="2.5"
       height="1"
       patternTransform="translate(0,0) scale(2,2)"
       preserveAspectRatio="xMidYMid"
       id="Strips1_1.5"
       style="fill:#000000"
       inkscape:stockid="Stripes 02 (2:3)"
       inkscape:isstock="true"
       inkscape:label="Stripes 02 (2:3)">&#10;      <rect
   style="stroke:none"
   x="0"
   y="-0.5"
   width="1"
   height="2"
   id="rect140" />
&#10;    </pattern>
  </defs>
  <g
     inkscape:label="Layer 1"
     inkscape:groupmode="layer"
     id="layer1"
     sodipodi:insensitive="true">
    <ellipse
       style="display:inline;opacity:0.647697;fill:#000000;fill-opacity:0;fill-rule:evenodd;stroke-width:1.02204"
       id="path53"
       cx="268.75183"
       cy="254.44093"
       rx="266.56912"
       ry="256" />
    <path
       id="path1"
       style="display:inline;fill:#000000;fill-rule:evenodd;stroke-width:1.00157"
       d="m 256.3125,0.3125 a 256,256 0 0 0 -256,256 256,256 0 0 0 256,256 256,256 0 0 0 256,-256 256,256 0 0 0 -256,-256 z M 256,13.349609 A 242.65001,242.65001 0 0 1 498.65039,256 242.65001,242.65001 0 0 1 256,498.65039 242.65001,242.65001 0 0 1 13.349609,256 242.65001,242.65001 0 0 1 256,13.349609 Z"
       sodipodi:insensitive="true" />
  </g>
  <g
     inkscape:groupmode="layer"
     id="layer3"
     inkscape:label="Layer 3">
    <path
       id="path22"
       style="opacity:0.647697;fill:#000000;fill-opacity:1;fill-rule:evenodd;stroke-width:0.90994"
       d="m 36.550781,133.45703 c -5.582482,17.23749 -20.980734,29.13542 -25.808593,48.40334 3.970679,18.05834 -11.42710009,28.70624 -5.9760941,49.69319 3.3977924,13.09853 -0.075048,32.04225 4.7182812,44.39267 -1.5787661,14.21266 0.1615497,23.41791 15.8126799,19.65478 158.970645,0 317.941285,0 476.911925,0 5.92323,-17.98374 10.21199,-39.37133 6.71538,-57.70208 -5.17533,-19.29443 -6.87147,-38.98117 -9.53737,-56.63815 -7.02814,-8.06178 -4.64059,-31.21197 -17.95878,-41.42003 3.29387,-10.77676 -11.05313,-4.92355 -17.24605,-6.38363 -142.54379,-3e-5 -285.08759,-6e-5 -427.631379,-9e-5 z m 468.789059,0 c -0.0826,0.46744 0.46127,0.0928 0,0 z m 60.9043,0 c -0.13048,0.50013 0.42277,-0.20011 0,0 z m -84.0957,6.59594 c 1.89385,1.88276 0.50186,0.0239 0,0 z m -472.2675806,60.0062 0.080078,0.52655 z M 578.63281,232.5573 c -0.28183,0.33966 0.29886,0.20281 0,0 z m -619.025388,8.91577 c -2.511605,1.44839 1.84529,2.28146 0,0 z m 43.8964842,41.29584 c -1.3201379,-0.22776 0.6798665,1.26865 0,0 z M 508.99609,294.6697 c -1.70313,1.25723 1.52416,1.31174 0,0 z m 30.10157,0.84886 c -0.27097,0.0949 0.041,0.12603 0,0 z" />
    <path
       id="rect57"
       style="opacity:0.647697;fill:#000000;fill-opacity:1;fill-rule:evenodd;stroke-width:1.00157"
       d="m 469.61914,354.48242 c -148.0114,0.14022 -296.02911,0.0211 -444.042968,0.0606 0.22424,16.38172 11.225708,31.00693 25.323121,40.58675 17.056022,11.59024 18.312441,34.61247 32.594047,48.25776 20.52188,19.67063 43.54345,37.5065 70.99029,46.32027 15.99693,5.82848 32.0298,13.03138 49.39861,10.79616 40.06986,0 80.13971,0 120.20956,0 7.54093,-12.57892 28.73217,-0.45203 36.64823,-15.51716 18.07517,-1.22232 20.81288,-19.01853 36.80414,-23.39185 21.46046,-3.00935 24.95109,-26.79419 41.5562,-37.67072 11.35883,-14.19222 29.02606,-23.49033 36.23881,-40.73088 4.00628,-12.26156 21.10379,-33.56916 -5.72004,-28.71093 z m -427.585937,39.1211 c 9.423155,6.13025 16.852119,29.39252 22.88337,27.90459 -5.187131,-10.95439 -12.522148,-21.30634 -22.88337,-27.90459 z m 408.193357,25.125 c -4.32089,4.56216 -21.33897,20.98548 -16.36815,17.79326 6.25016,-5.15104 11.31209,-11.51764 16.36815,-17.79326 z m 6.78321,7.9707 -0.0824,0.17768 z m -430.349614,3.05273 0.116963,0.44286 z m 400.146484,13.36328 c -4.9125,5.15519 -5.71333,7.53138 0,0 z m -20.53125,19.63672 c -11.99811,4.05132 -9.28483,8.87816 0,0 z m 24.75977,1.29493 -0.73935,0.47572 z m -34.51368,4.0664 -0.10879,0.18328 z m 19.3418,0.54492 0.47755,0.23286 z m -25.1875,1.375 c -10.71423,1.68582 -2.0584,7.61127 0,0 z m 21.86524,0.97852 -0.0874,0.0914 z m -308.68555,3.39453 c -1.78492,0.27921 1.92281,0.92698 0,0 z m 379.89258,1.58398 -0.0334,2.52749 z" />
  </g>
  <g
     inkscape:groupmode="layer"
     id="layer2"
     inkscape:label="Layer 2">
    <g
       id="g2"
       transform="translate(21.827045,79.824603)">
      <rect
         style="display:inline;fill:#333333;fill-opacity:1;fill-rule:evenodd;stroke-width:1.00157"
         id="rect2"
         width="25.568819"
         height="81.695496"
         x="221.38855"
         y="225.13033" />
      <rect
         style="display:inline;opacity:0.682927;mix-blend-mode:darken;fill:url(#pattern2);fill-opacity:1;fill-rule:evenodd;stroke-width:1.00157"
         id="rect1"
         width="25.568819"
         height="81.695496"
         x="221.38855"
         y="225.13033" />
      <rect
         style="opacity:1;fill:#000000;fill-opacity:1;fill-rule:evenodd;stroke-width:1.00157"
         id="rect3"
         width="86.684532"
         height="184.59439"
         x="212.65773"
         y="151.23021"
         transform="translate(-21.827041,-109.1352)" />
    </g>
  </g>
  <g
     inkscape:groupmode="layer"
     id="layer4"
     inkscape:label="Layer 4">
    <path
       d="m 163.65908,70.439326 q 0.75237,1.649063 0.71016,3.614668 -0.0228,1.956986 -0.89722,3.706433 -0.96262,1.904814 -2.67992,3.512162 -1.69805,1.598656 -4.54109,2.89579 -3.05159,1.392159 -5.75609,1.938992 -2.68555,0.537763 -5.71661,0.569789 l -2.14437,-4.700626 0.26477,-0.12228 q 2.95468,0.804606 6.20076,0.491774 3.24632,-0.312895 5.71032,-1.436987 3.48757,-1.590945 4.82434,-3.780697 1.35586,-2.198376 0.36114,-4.37823 -0.85607,-1.876371 -2.19103,-2.343754 -1.31612,-0.475861 -3.41748,-0.112642 -1.59451,0.268989 -3.37486,0.783787 -1.7615,0.505789 -3.79191,0.974164 -4.11611,0.915853 -6.80905,-0.168479 -2.68259,-1.111844 -4.09152,-4.201904 -1.61684,-3.544417 0.34913,-7.166219 1.95722,-3.640587 6.56315,-5.741668 2.97589,-1.357622 5.71834,-1.921429 2.74245,-0.563492 5.03725,-0.603323 l 2.0233,4.435359 -0.26424,0.123128 q -2.23368,-0.630139 -5.27474,-0.318888 -3.03071,0.283429 -5.77909,1.537144 -3.01375,1.37487 -4.28171,3.464393 -1.2489,2.081085 -0.3497,4.05238 0.80407,1.762683 2.17222,2.352258 1.36798,0.589297 3.90364,0.07443 1.33394,-0.287975 3.74368,-0.929115 2.40948,-0.641406 4.14526,-0.952251 3.52704,-0.600811 5.88868,0.359318 2.36147,0.960938 3.745,3.993372 z m 29.70793,-0.671221 -4.90847,1.613047 -12.04751,-6.764319 -1.65993,3.089405 2.42583,7.382539 -3.72084,1.222726 -10.11996,-30.796611 3.72097,-1.222633 6.4908,19.752464 7.11153,-14.595366 4.69065,-1.541304 -6.91606,13.588186 z m 18.73113,-27.946685 -6.46185,34.021311 -4.0908,0.894726 2.15877,-10.410185 -13.78953,-19.652839 4.15189,-0.907979 10.66729,15.324232 3.35528,-18.391826 z m 31.84604,10.722733 q 0.19234,1.802244 -0.47005,3.653664 -0.64121,1.849083 -2.02377,3.232038 -1.51609,1.502363 -3.65376,2.483608 -2.11642,0.979841 -5.22391,1.310482 -3.33537,0.354724 -6.07392,0.01843 -2.71778,-0.339069 -5.60319,-1.268149 l -0.54703,-5.137588 0.28992,-0.03098 q 2.54836,1.697986 5.72695,2.428026 3.17833,0.73041 5.87152,0.443445 3.8118,-0.405692 5.77267,-2.060186 1.98148,-1.656729 1.7281,-4.038897 -0.21878,-2.05082 -1.33712,-2.916395 -1.09844,-0.867324 -3.20633,-1.188094 -1.59776,-0.249143 -3.44952,-0.324218 -1.83099,-0.07754 -3.90527,-0.275598 -4.19445,-0.43339 -6.40598,-2.314034 -2.19287,-1.903719 -2.55236,-5.280281 -0.41249,-3.873998 2.59829,-6.687661 3.00848,-2.834343 8.04259,-3.370176 3.25243,-0.346292 6.03244,-0.01341 2.78008,0.332293 4.9694,1.021434 l 0.51601,4.847632 -0.28992,0.03199 q -1.9198,-1.303954 -4.90308,-1.9709 -2.96464,-0.690184 -5.96859,-0.370195 -3.29385,0.350533 -5.15771,1.931927 -1.84294,1.579251 -1.61377,3.733544 0.20505,1.92651 1.31623,2.918695 1.11125,0.992209 3.67975,1.305314 1.35675,0.148694 3.84539,0.302985 2.48866,0.153739 4.23367,0.408183 3.53592,0.545542 5.47242,2.203933 1.93648,1.658291 2.28934,4.973056 z m 27.80665,-3.177692 q -0.0133,2.833316 -0.83829,5.18339 -0.82356,2.329527 -2.31126,3.946965 -1.3826,1.534904 -3.26198,2.379539 -1.85845,0.823748 -3.9416,0.813814 -1.81253,-0.0085 -3.28962,-0.412086 -1.45648,-0.402728 -2.97295,-1.244102 l -0.0482,9.749852 -3.91663,-0.01946 0.15785,-31.85387 3.91669,0.01956 -0.0136,2.4375 q 1.5692,-1.304449 3.51089,-2.169972 1.96291,-0.885883 4.17112,-0.875058 4.20823,0.02107 6.52575,3.219817 2.3384,3.178322 2.31049,8.824005 z m -4.04213,0.0842 q 0.0208,-4.208271 -1.40635,-6.298736 -1.42735,-2.090312 -4.40607,-2.105636 -1.68748,-0.0088 -3.39935,0.712339 -1.7121,0.720324 -3.28037,1.900292 l -0.0657,13.187438 q 1.66302,0.758219 2.84904,1.03497 1.20703,0.276902 2.72784,0.284357 3.27075,0.01596 5.11509,-2.182983 1.8445,-2.199016 1.86579,-6.532519 z m 16.4529,-14.30356 -4.40233,-0.35548 0.32742,-4.049337 4.4023,0.355166 z m -2.43536,27.058393 -3.90398,-0.315067 1.8727,-23.195452 3.90396,0.31508 z m 26.95495,3.657424 -3.86893,-0.609561 2.06244,-13.088447 q 0.25005,-1.584581 0.28165,-2.99259 0.0352,-1.42863 -0.33554,-2.288492 -0.37762,-0.945593 -1.28114,-1.508938 -0.89887,-0.585137 -2.44261,-0.827779 -1.58458,-0.24952 -3.43657,0.259963 -1.85189,0.509359 -3.6277,1.474152 l -2.70434,17.163277 -3.86898,-0.609511 3.62203,-22.987188 3.86901,0.609527 -0.4022,2.551801 q 2.0478,-1.216886 4.11519,-1.755839 2.06747,-0.538533 4.10476,-0.21787 3.72489,0.586969 5.32638,3.138253 1.60185,2.551156 0.93674,6.770108 z m 25.6282,6.438762 -3.78489,-1.007235 0.62651,-2.35557 q -2.0059,0.975267 -3.98647,1.28919 -1.9806,0.313152 -4.05429,-0.238037 -4.02648,-1.071457 -5.57719,-4.804087 -1.53021,-3.727316 -0.0676,-9.223512 0.7607,-2.858758 2.16073,-4.879194 1.42009,-2.015142 3.22719,-3.215769 1.77608,-1.16587 3.80249,-1.488937 2.04635,-0.317493 3.99917,0.202121 1.77189,0.470897 3.03885,1.218494 1.27236,0.727048 2.57356,1.91363 l 2.59315,-9.744266 3.78492,1.007055 z m -2.3116,-6.543701 3.43419,-12.905051 q -1.3481,-1.091578 -2.48629,-1.67481 -1.13859,-0.582579 -2.56786,-0.963175 -3.18094,-0.846588 -5.54197,0.896371 -2.36099,1.743286 -3.4426,5.810303 -1.06635,4.006394 -0.25449,6.464565 0.81705,2.437931 3.837,3.241631 1.61062,0.428457 3.44902,0.163561 1.84368,-0.285608 3.57324,-1.032066 z m 13.34613,10.35749 -3.7008,-1.282175 10.61219,-30.630409 3.70089,1.28207 z m 29.64424,-0.09795 -15.76541,-6.740283 q -0.84413,1.972756 -0.88063,3.701873 -0.0289,1.709776 0.60446,3.090709 0.60303,1.345355 1.76668,2.386425 1.18244,1.049724 2.82991,1.754087 2.18388,0.933382 4.75527,1.013374 2.59891,0.06927 3.89782,-0.372718 l 0.19133,0.08265 -1.67914,3.926842 q -2.14747,-0.01165 -4.26499,-0.305378 -2.11762,-0.293572 -4.20568,-1.186276 -5.32522,-2.27717 -7.08524,-6.427807 -1.7514,-4.170306 0.51704,-9.476466 2.24436,-5.248558 6.41659,-7.112868 4.19209,-1.8556 8.86605,0.142767 4.32954,1.850487 5.58521,5.378779 1.27515,3.535883 -0.71492,8.190768 z m -2.32622,-4.257274 q 1.19309,-2.843343 0.43889,-5.001026 -0.73492,-2.149516 -3.6084,-3.378047 -2.89254,-1.236656 -5.34544,-0.269048 -2.43378,0.975943 -3.74466,3.406361 z"
       id="text56"
       style="font-size:42.6667px;-inkscape-font-specification:sans-serif;letter-spacing:0px;word-spacing:0px;opacity:0.647697;fill-rule:evenodd;stroke-width:1.00157"
       aria-label="SkySpindle" />
  </g>
</svg>
